<svg xmlns="http://www.w3.org/2000/svg" fill="none" stroke="currentColor" stroke-width="1.5" class="w-6 h-6" viewBox="0 0 24 24">
    <path stroke-linecap="round" stroke-linejoin="round" d="m7.88 14.25 1.2 1.94A2.25 2.25 0 0 0 11 17.25h2c.78 0 1.5-.4 1.91-1.06l1.21-1.94M2.41 9h4.64a2.25 2.25 0 0 1 1.87 1l.16.25a2.25 2.25 0 0 0 1.87 1h2.1a2.25 2.25 0 0 0 1.87-1l.16-.25a2.25 2.25 0 0 1 1.87-1h4.64M2.41 9a2.25 2.25 0 0 0-.16.83V12a2.25 2.25 0 0 0 2.25 2.25h15A2.25 2.25 0 0 0 21.75 12V9.83c0-.28-.06-.57-.16-.83M2.41 9a2.25 2.25 0 0 1 .38-.63l3.29-3.83a2.25 2.25 0 0 1 1.7-.79h8.43c.66 0 1.29.29 1.71.79l3.29 3.83c.16.19.29.4.38.63M4.5 20.25h15A2.25 2.25 0 0 0 21.75 18v-2.63c0-.62-.5-1.12-1.13-1.12H3.38c-.62 0-1.12.5-1.12 1.13V18a2.25 2.25 0 0 0 2.25 2.25z"/>
</svg>
