<svg xmlns="http://www.w3.org/2000/svg" fill="none" stroke="currentColor" stroke-width="1.5" class="w-6 h-6" viewBox="0 0 24 24">
    <path stroke-linecap="round" stroke-linejoin="round" d="M2.25 18.75a60.07 60.07 0 0 1 15.8 2.1c.72.2 1.45-.34 1.45-1.1v-1M3.75 4.5v.75A.75.75 0 0 1 3 6h-.75m0 0v-.38c0-.62.5-1.12 1.13-1.12h16.87M2.25 6v9m18-10.5v.75c0 .41.34.75.75.75h.75m-1.5-1.5h.38c.62 0 1.12.5 1.12 1.13v9.75c0 .62-.5 1.12-1.13 1.12h-.37m1.5-1.5H21a.75.75 0 0 0-.75.75v.75m0 0H3.75m0 0h-.38a1.13 1.13 0 0 1-1.12-1.13V15m1.5 1.5v-.75A.75.75 0 0 0 3 15h-.75M15 10.5a3 3 0 1 1-6 0 3 3 0 0 1 6 0zm3 0h0v0h0v0zm-12 0h0v0h0v0z"/>
</svg>
